<?xml version="1.0" encoding="utf-8"?>
<!-- Generator: Adobe Illustrator 23.0.1, SVG Export Plug-In . SVG Version: 6.00 Build 0)  -->
<svg version="1.1" id="Layer_1" xmlns="http://www.w3.org/2000/svg" xmlns:xlink="http://www.w3.org/1999/xlink" x="0px" y="0px"
	 viewBox="0 0 50 50" style="enable-background:new 0 0 50 50;" xml:space="preserve">
<path d="M29.6,25L49,5.5c1.3-1.3,1.3-3.3,0-4.6c-1.3-1.3-3.3-1.3-4.6,0L25,20.4L5.5,0.9C4.3-0.3,2.2-0.3,1,0.9
	c-1.3,1.3-1.3,3.3,0,4.6L20.4,25L1,44.5c-1.3,1.3-1.3,3.3,0,4.6C1.6,49.7,2.4,50,3.2,50s1.7-0.3,2.3-0.9L25,29.6L44.5,49
	c0.6,0.6,1.5,0.9,2.3,0.9s1.7-0.3,2.3-0.9c1.3-1.3,1.3-3.3,0-4.6L29.6,25z"/>
</svg>
