<?xml version="1.0" encoding="utf-8"?>
<!-- Generator: Adobe Illustrator 23.0.1, SVG Export Plug-In . SVG Version: 6.00 Build 0)  -->
<svg version="1.1" id="Layer_1" xmlns="http://www.w3.org/2000/svg" xmlns:xlink="http://www.w3.org/1999/xlink" x="0px" y="0px"
	 viewBox="0 0 322 276" style="enable-background:new 0 0 322 276;" xml:space="preserve">
<style type="text/css">
	.st0{fill:#FFFFFF;}
	.st1{fill:#DD0301;}
	.st2{font-family:'Gabriola';}
	.st3{font-size:74.2415px;}
</style>
<g>
	<g>
		<g>
			<g>
				<path class="st0" d="M161.8,62.1c-31.8,0-57.6,25.8-57.6,57.6s25.8,57.6,57.6,57.6s57.6-25.8,57.6-57.6S193.6,62.1,161.8,62.1z
					 M161.8,163.5c-24.1,0-43.7-19.6-43.7-43.7S137.7,76,161.8,76s43.7,19.6,43.7,43.7S185.9,163.5,161.8,163.5z"/>
			</g>
		</g>
		<g>
			<g>
				<path class="st1" d="M161.8,87.8c-17.6,0-32,14.4-32,32s14.4,32,32,32s32-14.4,32-32S179.4,87.8,161.8,87.8z"/>
			</g>
		</g>
		<g>
			<g>
				<path class="st0" d="M242.3,124.6v-70c0-0.7-0.4-1.3-1.1-1.5c-0.6-0.2-1.3,0-1.8,0.5c-8.7,11.5-13.5,25.6-13.5,40v25.6
					c0,2.9,2.4,5.3,5.3,5.3h2.2c-2.2,22.6-3.6,54.2-3.6,57.9c0,5.8,3.6,10.5,8,10.5c4.4,0,8-4.7,8-10.5
					C246,178.7,244.5,147.2,242.3,124.6z"/>
			</g>
		</g>
		<g>
			<g>
				<path class="st0" d="M95.2,110.7c4.4-2.7,7.4-7.6,7.4-13.1l-2.2-35.9c-0.1-1.4-1.2-2.4-2.6-2.4c-1.5,0-2.7,1.2-2.6,2.7l1.4,28.8
					c0,1.6-1.3,2.9-2.9,2.9c-1.6,0-2.9-1.3-2.9-2.9L90.1,62c0-1.5-1.3-2.7-2.8-2.7s-2.8,1.2-2.8,2.7l-0.7,28.8
					c0,1.6-1.3,2.9-2.9,2.9c-1.6,0-2.9-1.3-2.9-2.9L79.4,62c0.1-1.5-1.1-2.7-2.6-2.7c-1.4,0-2.5,1.1-2.6,2.4L72,97.6
					c0,5.6,3,10.4,7.4,13.1c2.9,1.7,4.5,5,4.1,8.4c-2.5,22.5-4.2,59.4-4.2,63.4c0,5.8,3.6,10.5,8,10.5s8-4.7,8-10.5
					c0-4-1.7-40.8-4.2-63.4C90.8,115.7,92.4,112.5,95.2,110.7z"/>
			</g>
		</g>
	</g>
	<text transform="matrix(0.9279 0 0 1 29.4458 246.667)" class="st0 st2 st3">Yummy Test</text>
</g>
</svg>
