<?xml version="1.0" encoding="utf-8"?>
<!-- Generator: Adobe Illustrator 23.0.1, SVG Export Plug-In . SVG Version: 6.00 Build 0)  -->
<svg version="1.1" id="Layer_1" xmlns="http://www.w3.org/2000/svg" xmlns:xlink="http://www.w3.org/1999/xlink" x="0px" y="0px"
	 viewBox="0 0 110 50" style="enable-background:new 0 0 110 50;" xml:space="preserve">
<style type="text/css">
	.st0{fill:#B8AB69;}
</style>
<image style="display:none;overflow:visible;" width="512" height="512" xlink:href="../../../../../../../Users/HP/Dropbox/My PC (DESKTOP-72K7L7E)/Downloads/dinner.png"  transform="matrix(-4.884647e-02 0 0 4.869403e-02 103.0094 22)">
</image>
<g>
	<g>
		<path class="st0" d="M10.6,19.9c-1,0-1.9,0-2.7-0.1c-0.8-0.1-1.5-0.2-2.1-0.4c-0.5-0.2-0.9-0.4-1-0.7c0.3-0.1,0.5-0.3,0.6-0.5
			c0.2-0.2,0.3-0.5,0.4-0.8C6,17,6.1,16.6,6.3,16l1.6-7.2c0.2-1.1,0.6-1.9,1.3-2.5c0.6-0.6,1.6-0.9,2.8-0.9c0.7,0,1.2,0.1,1.7,0.3
			c0.5,0.2,0.7,0.5,0.8,0.8c-0.5,0.2-0.8,0.5-1,0.9c-0.2,0.4-0.3,0.9-0.4,1.4l-0.3,1.2h0.6c1.1,0,1.9-0.2,2.5-0.4
			c0.6-0.3,1.1-0.7,1.4-1.1c0.3-0.5,0.4-0.9,0.4-1.4c0-0.9-0.5-1.6-1.4-2.1c-0.9-0.5-2.2-0.8-3.9-0.8c-0.8,0-1.7,0.1-2.5,0.3
			C9,4.8,8.3,5,7.6,5.4C6.9,5.8,6.4,6.3,5.9,6.9C5.5,7.5,5.3,8.2,5.3,9c0,0.5,0.1,0.9,0.2,1.3c0.1,0.4,0.3,0.9,0.6,1.4
			c-0.2,0.2-0.5,0.4-0.9,0.5c-0.4,0.1-0.7,0.2-1,0.2c-0.8,0-1.4-0.1-1.9-0.4c-0.5-0.3-0.9-0.7-1.2-1.2c-0.3-0.5-0.4-1-0.4-1.6
			C0.6,8,1.1,6.9,2,5.9c0.9-1,2.3-1.7,4-2.3c1.8-0.6,3.9-0.8,6.4-0.8c1.2,0,2.3,0.1,3.4,0.2c1.1,0.1,2.1,0.4,3,0.7
			c0.9,0.3,1.6,0.7,2.1,1.2c0.5,0.5,0.8,1.1,0.8,1.9c0,0.6-0.2,1.1-0.5,1.6c-0.3,0.5-0.7,0.9-1.3,1.3c-0.5,0.4-1.1,0.7-1.7,0.9
			c0.5,0.1,1.1,0.4,1.6,0.6c0.5,0.3,1,0.6,1.3,1.1s0.5,1.1,0.5,1.8c0,0.9-0.2,1.6-0.7,2.4c-0.4,0.7-1.1,1.3-2,1.9
			c-0.9,0.5-2.1,0.9-3.5,1.2S12.6,19.9,10.6,19.9z M11.5,18.3c1.2,0,2.1-0.2,2.9-0.5s1.4-0.8,1.8-1.5c0.4-0.6,0.6-1.3,0.6-2
			c0-0.9-0.4-1.5-1.1-1.9c-0.7-0.4-1.8-0.6-3.3-0.6l-0.9,4.1c-0.2,0.7-0.4,1.3-0.6,1.6c-0.2,0.4-0.4,0.6-0.6,0.7c0.2,0,0.4,0,0.6,0
			S11.3,18.3,11.5,18.3z"/>
		<path class="st0" d="M37.8,22.6c-0.5,0-0.9-0.1-1.3-0.3c-0.4-0.2-0.7-0.6-1-1.1c-0.3-0.5-0.5-1.2-0.7-2c-0.2-0.9-0.3-1.9-0.4-3.2
			h-3.8c-0.7,1-1.3,1.8-1.9,2.3c-0.6,0.6-1.1,1-1.6,1.2s-0.9,0.3-1.4,0.3c-0.6,0-1-0.1-1.3-0.4c-0.3-0.3-0.4-0.6-0.4-0.9
			c0-0.1,0-0.2,0.1-0.3c0-0.1,0.1-0.2,0.1-0.2c0.6,0,1.1-0.2,1.7-0.5s1.1-0.7,1.6-1.2c0.5-0.5,1-1.1,1.5-1.8s1-1.5,1.5-2.3
			c0.5-0.8,1-1.7,1.4-2.6c0.5-0.9,0.9-1.8,1.4-2.8l-0.1-0.2c-0.2-0.1-0.4-0.1-0.7-0.2c-0.3,0-0.5-0.1-0.8-0.1
			c-0.9,0-1.6,0.3-2.2,0.8s-0.9,1.2-0.9,2.1c0,0.4,0,0.8,0.1,1.1c0.1,0.4,0.2,0.8,0.5,1.2c-0.2,0.2-0.5,0.3-0.8,0.4
			C28,12,27.7,12,27.5,12c-0.7,0-1.2-0.1-1.7-0.4c-0.4-0.3-0.8-0.6-1-1s-0.3-0.9-0.3-1.4c0-0.7,0.3-1.3,0.7-1.9
			c0.4-0.6,1.1-1.2,2-1.6s2-0.6,3.3-0.6c0.7,0,1.3,0,2,0.1c0.7,0.1,1.3,0.1,2,0.2c0.7,0.1,1.4,0.1,2,0.2s1.3,0.1,2,0.1
			c0,0.9,0,1.8,0,2.7c0,0.9,0,1.8-0.1,2.6c0,0.9,0,1.7,0,2.5c0,0.9,0.1,1.7,0.1,2.5c0.1,0.8,0.2,1.5,0.3,2.1
			c0.1,0.6,0.3,1.2,0.6,1.7c0.3,0.5,0.6,0.9,0.9,1.2c0,0.2-0.2,0.5-0.5,0.7c-0.3,0.3-0.6,0.5-1,0.7C38.7,22.6,38.3,22.6,37.8,22.6z
			 M31.5,14.4h2.9c0-0.5,0-1.1,0-1.7c0-0.6,0-1.3,0.1-2c0-0.7,0.1-1.5,0.1-2.2h0c-0.5,1.2-1,2.3-1.5,3.3
			C32.5,12.8,32,13.6,31.5,14.4z"/>
		<path class="st0" d="M44.4,12c-0.7,0-1.2-0.1-1.7-0.4s-0.8-0.6-1-1s-0.3-0.9-0.3-1.4s0.1-1,0.3-1.5s0.6-0.9,1-1.3
			c0.5-0.4,1.1-0.7,1.8-1s1.6-0.4,2.6-0.4c0.9,0,1.8,0.1,2.6,0.2c0.8,0.1,1.6,0.2,2.4,0.3c0.8,0.1,1.6,0.2,2.5,0.2l-2.1,1.9
			l-2.8-0.8l-0.1-0.2c-0.4-0.1-0.9-0.2-1.4-0.2c-0.9,0-1.5,0.2-2.1,0.7c-0.5,0.5-0.8,1.2-0.8,2c0,0.4,0,0.8,0.1,1.1
			c0.1,0.4,0.3,0.7,0.5,1.2c-0.2,0.2-0.5,0.3-0.8,0.4C44.9,11.9,44.6,12,44.4,12z M45.9,19.9c-0.5,0-0.9-0.1-1.2-0.4
			c-0.3-0.3-0.5-0.6-0.5-0.9c0-0.2,0-0.4,0.1-0.5c0.5-0.1,1-0.3,1.4-0.6c0.4-0.4,0.8-0.8,1.1-1.4c0.3-0.6,0.6-1.3,0.9-2.1
			c0.3-0.8,0.5-1.6,0.8-2.5c0.2-0.9,0.5-1.8,0.7-2.8s0.4-1.9,0.6-2.9l1.7,2.1c-0.2,1.7-0.4,3.1-0.7,4.4c-0.3,1.2-0.5,2.3-0.8,3.2
			c-0.3,0.9-0.6,1.6-0.9,2.2c-0.3,0.6-0.7,1-1,1.4c-0.4,0.3-0.7,0.6-1.1,0.7C46.7,19.8,46.3,19.9,45.9,19.9z M57.2,19.6
			c-0.7,0-1.2-0.1-1.7-0.4c-0.5-0.2-0.8-0.6-1.1-1c-0.3-0.4-0.5-0.9-0.7-1.4l-2.3-6.9l-1.6-4.2h4.7l3.4,9.8l1.1,3.8
			c-0.3,0.1-0.6,0.2-0.9,0.2C57.8,19.6,57.5,19.6,57.2,19.6z M59.1,19.3L57.8,16c0.3-2,0.6-3.8,0.9-5.3c0.3-1.5,0.5-2.9,0.8-4
			s0.6-2,0.9-2.7c0.3-0.7,0.7-1.2,1.2-1.6c0.5-0.3,1-0.5,1.6-0.5c0.5,0,0.9,0.1,1.3,0.4s0.6,0.6,0.8,1.1c-0.6,0.5-1.2,1.1-1.7,1.9
			C63,6,62.5,6.9,62.1,7.9c-0.4,1-0.7,2.1-1.1,3.3c-0.3,1.2-0.6,2.5-1,3.9C59.8,16.5,59.5,17.9,59.1,19.3z"/>
		<path class="st0" d="M67.7,19.8c-1.1,0-2.1-0.2-2.8-0.7c-0.7-0.4-1.3-1.1-1.7-1.9s-0.6-1.8-0.6-2.9c0-1,0.1-1.9,0.4-2.8
			s0.7-1.7,1.2-2.5c0.5-0.8,1.2-1.4,1.9-2c0.8-0.6,1.6-1,2.6-1.3s2.1-0.5,3.3-0.5c0.6,0,1.2,0,1.7,0.1s1.1,0.2,1.5,0.4
			c0.5,0.2,0.8,0.5,1.1,0.8c0.3,0.3,0.4,0.7,0.4,1.2c0,0.5-0.1,0.9-0.4,1.3c-0.3,0.4-0.6,0.7-1.1,0.9c-0.5,0.2-0.9,0.3-1.5,0.3
			c-0.2,0-0.3,0-0.6-0.1c-0.2,0-0.4-0.1-0.5-0.2c0.1-0.2,0.1-0.4,0.2-0.7C73,9.2,73,8.9,73,8.6c0-0.3,0-0.5-0.1-0.8
			c-0.1-0.3-0.2-0.5-0.4-0.7c-0.2-0.2-0.5-0.3-1-0.3c-0.5,0-1,0.2-1.4,0.5S69.2,8,68.9,8.5C68.6,9,68.3,9.6,68,10.2
			c-0.2,0.6-0.4,1.3-0.5,2c-0.1,0.7-0.2,1.3-0.2,1.9c0,0.4,0,0.8,0.1,1.2c0.1,0.4,0.2,0.8,0.4,1.1c0.2,0.3,0.4,0.6,0.7,0.8
			c0.3,0.2,0.7,0.3,1.2,0.3c0.2,0,0.5,0,0.8-0.1c0.3-0.1,0.5-0.1,0.7-0.2c0.2-0.1,0.4-0.2,0.4-0.4l0,1.8c-0.4,0.3-0.8,0.5-1.2,0.7
			c-0.5,0.2-0.9,0.3-1.4,0.4C68.6,19.7,68.2,19.8,67.7,19.8z M70.7,23.5c-0.6,0-1.2-0.1-1.7-0.4c-0.5-0.3-0.8-0.7-0.9-1.3
			c0.1,0,0.2,0,0.3,0c0.1,0,0.2,0,0.3,0c0.4,0,0.8-0.1,1.2-0.3s0.6-0.5,0.9-0.9c0.2-0.4,0.4-0.8,0.6-1.4c0.1-0.5,0.2-1.2,0.2-1.9
			l0.9-4.6l4.2-0.4c-0.2,0.5-0.4,1-0.6,1.5c-0.2,0.6-0.3,1.2-0.5,1.8c-0.1,0.6-0.3,1.3-0.4,2c-0.2,0.8-0.3,1.5-0.5,2.2
			s-0.4,1.3-0.7,1.8c-0.3,0.5-0.7,0.9-1.2,1.2S71.5,23.5,70.7,23.5z"/>
		<path class="st0" d="M92.1,22.6c-0.5,0-0.9-0.1-1.3-0.3c-0.4-0.2-0.7-0.6-1-1.1s-0.5-1.2-0.7-2c-0.2-0.9-0.3-1.9-0.3-3.2h-3.8
			c-0.7,1-1.3,1.8-1.9,2.3s-1.1,1-1.6,1.2s-0.9,0.3-1.4,0.3c-0.6,0-1-0.1-1.3-0.4c-0.3-0.3-0.4-0.6-0.4-0.9c0-0.1,0-0.2,0.1-0.3
			c0-0.1,0.1-0.2,0.1-0.2c0.6,0,1.1-0.2,1.7-0.5s1.1-0.7,1.6-1.2c0.5-0.5,1-1.1,1.5-1.8s1-1.5,1.5-2.3c0.5-0.8,1-1.7,1.4-2.6
			c0.5-0.9,0.9-1.8,1.4-2.8l-0.1-0.2c-0.2-0.1-0.4-0.1-0.7-0.2c-0.3,0-0.5-0.1-0.8-0.1c-0.9,0-1.6,0.3-2.2,0.8s-0.9,1.2-0.9,2.1
			c0,0.4,0,0.8,0.1,1.1c0.1,0.4,0.2,0.8,0.5,1.2c-0.2,0.2-0.5,0.3-0.8,0.4C82.3,12,82,12,81.8,12c-0.7,0-1.2-0.1-1.7-0.4
			c-0.4-0.3-0.8-0.6-1-1s-0.3-0.9-0.3-1.4c0-0.7,0.3-1.3,0.7-1.9c0.4-0.6,1.1-1.2,2-1.6c0.9-0.4,2-0.6,3.3-0.6c0.7,0,1.3,0,2,0.1
			c0.7,0.1,1.3,0.1,2,0.2c0.7,0.1,1.4,0.1,2,0.2c0.7,0.1,1.3,0.1,2,0.1c0,0.9,0,1.8,0,2.7c0,0.9,0,1.8-0.1,2.6c0,0.9,0,1.7,0,2.5
			c0,0.9,0.1,1.7,0.1,2.5c0.1,0.8,0.2,1.5,0.3,2.1c0.1,0.6,0.3,1.2,0.6,1.7s0.6,0.9,0.9,1.2c0,0.2-0.2,0.5-0.5,0.7
			c-0.3,0.3-0.6,0.5-1,0.7S92.6,22.6,92.1,22.6z M85.8,14.4h2.9c0-0.5,0-1.1,0-1.7c0-0.6,0-1.3,0.1-2c0-0.7,0.1-1.5,0.1-2.2h0
			c-0.5,1.2-1,2.3-1.5,3.3C86.8,12.8,86.3,13.6,85.8,14.4z"/>
		<path class="st0" d="M105.5,23.5c-0.8,0-1.6-0.1-2.3-0.4c-0.7-0.3-1.3-0.6-1.9-1c-0.6-0.4-1.2-0.8-1.8-1.3c-0.6-0.4-1.2-0.8-1.8-1
			c-0.6-0.3-1.3-0.4-2-0.4c-0.3,0-0.5,0-0.7,0c-0.2,0-0.3,0.1-0.5,0.2c-0.1-0.1-0.3-0.2-0.3-0.3c-0.1-0.1-0.1-0.3-0.1-0.4
			c0-0.2,0.1-0.4,0.2-0.6c0.1-0.2,0.4-0.4,0.7-0.5c0.3-0.1,0.7-0.2,1.3-0.2c0.5,0,1.1,0.1,1.7,0.3c0.6,0.2,1.3,0.4,1.9,0.7
			c0.7,0.3,1.4,0.6,2.1,0.9c0.7,0.3,1.4,0.6,2,0.8c0.7,0.2,1.3,0.3,1.8,0.3c0.3,0,0.7,0,1-0.1s0.6-0.1,0.9-0.3
			c0.3,0.1,0.6,0.3,0.7,0.6c0.2,0.2,0.2,0.5,0.2,0.8c0,0.3-0.1,0.6-0.4,1c-0.3,0.3-0.6,0.6-1.1,0.8
			C106.8,23.4,106.2,23.5,105.5,23.5z M97.5,18.2L96,17.6c0.5-0.4,0.9-0.8,1.2-1.4c0.3-0.5,0.5-1.2,0.6-1.9c0.1-0.7,0.2-1.6,0.3-2.5
			c0.1-1.4,0.5-2.6,1.1-3.6s1.5-1.7,2.5-2.3c1.1-0.5,2.4-0.8,3.8-0.8c0.8,0,1.6,0.1,2.2,0.4c0.7,0.2,1.2,0.6,1.6,1
			c0.4,0.5,0.6,1,0.6,1.7c0,0.4-0.1,0.9-0.3,1.3c-0.2,0.4-0.5,0.7-0.9,1c-0.4,0.3-0.9,0.4-1.5,0.4c-0.3,0-0.6,0-0.9-0.1
			c-0.3-0.1-0.5-0.2-0.6-0.3c0.2-0.2,0.4-0.5,0.5-0.9s0.2-0.8,0.2-1.2c0-0.6-0.1-1.1-0.4-1.4c-0.3-0.3-0.6-0.5-1-0.5
			c-0.5,0-1,0.1-1.3,0.4c-0.3,0.3-0.5,0.7-0.7,1.2c-0.2,0.5-0.3,1.1-0.4,1.8c-0.1,0.7-0.2,1.4-0.3,2.2c-0.1,1-0.4,1.9-0.7,2.7
			c-0.4,0.8-0.9,1.5-1.6,2.1C99.3,17.5,98.5,17.9,97.5,18.2z"/>
		<path class="st0" d="M3.9,36.5c-0.7,0-1.2-0.1-1.7-0.4s-0.8-0.6-1-1c-0.2-0.4-0.3-0.9-0.3-1.4c0-0.6,0.2-1.3,0.6-1.9
			s1-1.2,1.9-1.6c0.8-0.4,1.9-0.6,3.2-0.6c1,0,1.9,0.1,2.7,0.2c0.8,0.1,1.7,0.2,2.4,0.4s1.5,0.2,2.2,0.2c0.6,0,1.2-0.1,1.7-0.2
			c0.5-0.1,1-0.4,1.5-0.8c0.2,0.2,0.4,0.4,0.6,0.7c0.1,0.3,0.2,0.5,0.2,0.8c0,0.3-0.1,0.7-0.3,1c-0.2,0.3-0.5,0.6-0.9,0.8
			c-0.4,0.2-1,0.3-1.6,0.3c-0.6,0-1.2,0-1.8-0.1s-1.2-0.2-1.8-0.4c-0.7-0.2-1.4-0.5-2.3-0.8l0-0.2c-0.3-0.1-0.6-0.2-0.9-0.3
			C8,31,7.8,31,7.5,31c-0.8,0-1.4,0.2-1.9,0.7c-0.5,0.5-0.7,1.1-0.7,2c0,0.4,0,0.8,0.1,1.1s0.3,0.8,0.5,1.2
			c-0.2,0.2-0.5,0.3-0.8,0.4C4.4,36.5,4.2,36.5,3.9,36.5z M6.2,45.2c-0.5,0-1-0.1-1.5-0.3c-0.4-0.2-0.7-0.4-0.7-0.7
			c0.2-0.1,0.4-0.2,0.6-0.4c0.1-0.2,0.3-0.4,0.4-0.7C5,42.9,5.1,42.5,5.2,42L7,34.5c0.2-0.8,0.5-1.5,1-2c0.5-0.5,1.1-1,1.8-1.3
			c0.7-0.3,1.6-0.5,2.5-0.7L9.7,42.1c-0.1,0.7-0.3,1.2-0.6,1.7c-0.3,0.5-0.6,0.8-1.1,1C7.6,45.1,7,45.2,6.2,45.2z M13.2,38.5
			c-0.2,0-0.5,0-0.9,0c-0.4,0-0.8-0.1-1.1-0.1s-0.7-0.1-1.1-0.2l0.5-2c0.2,0,0.5,0,0.9,0c0.4,0,0.7,0,1.1,0c0.4,0,0.7,0,1,0
			c0.3,0,0.6,0,1,0s0.7,0,1,0c0,0.1,0,0.2,0,0.2s0,0.2,0,0.2c0,0.6-0.2,1-0.6,1.3C14.6,38.4,14,38.5,13.2,38.5z"/>
		<path class="st0" d="M23.5,44.6c-2,0-3.5-0.5-4.5-1.4c-1-0.9-1.5-2.2-1.5-4c0-1,0.1-2,0.4-2.9c0.3-0.9,0.7-1.8,1.2-2.6
			c0.5-0.8,1.1-1.5,1.8-2.1c0.7-0.6,1.5-1.1,2.4-1.4s1.9-0.5,2.9-0.5c0.2,0,0.5,0,0.7,0c0.2,0,0.5,0.1,0.7,0.1v0
			c-0.9,0.2-1.7,0.4-2.3,0.8c-0.7,0.4-1.2,0.8-1.7,1.4c-0.5,0.6-0.8,1.2-1.1,2s-0.5,1.6-0.6,2.4c-0.1,0.9-0.2,1.8-0.2,2.8
			c0,1.4,0.2,2.4,0.6,3c0.4,0.6,1,0.9,1.8,0.9c0.7,0,1.3-0.2,1.8-0.6c0.5-0.4,1-1,1.5-1.7c0.4-0.7,0.8-1.5,1.1-2.3
			c0.3-0.8,0.5-1.6,0.7-2.5c0.2-0.8,0.2-1.5,0.2-2.2c0-0.6-0.1-1.2-0.3-1.5s-0.4-0.6-0.8-0.6c-0.4,0-0.6,0.1-0.9,0.4
			c-0.2,0.3-0.4,0.7-0.5,1.1c-0.1,0.4-0.2,0.9-0.2,1.4c0,0.5,0.1,1,0.3,1.4c0.2,0.4,0.4,0.6,0.7,0.8c-0.2,0.3-0.5,0.5-0.9,0.7
			c-0.4,0.2-0.7,0.2-1.1,0.2c-0.6,0-1.2-0.2-1.6-0.5s-0.7-0.9-0.7-1.7c0-0.6,0.1-1.1,0.3-1.7s0.5-1.1,1-1.6c0.4-0.5,1-0.9,1.6-1.2
			c0.7-0.3,1.4-0.5,2.3-0.5c1,0,1.8,0.2,2.5,0.6c0.7,0.4,1.1,0.9,1.5,1.6c0.3,0.7,0.5,1.5,0.5,2.4c0,0.8-0.1,1.7-0.4,2.6
			c-0.3,0.9-0.6,1.7-1.2,2.6c-0.5,0.8-1.2,1.6-2,2.2c-0.8,0.7-1.7,1.2-2.8,1.6S24.9,44.6,23.5,44.6z"/>
		<path class="st0" d="M40.6,44.6c-2,0-3.5-0.5-4.5-1.4c-1-0.9-1.5-2.2-1.5-4c0-1,0.1-2,0.4-2.9c0.3-0.9,0.7-1.8,1.2-2.6
			c0.5-0.8,1.1-1.5,1.8-2.1c0.7-0.6,1.5-1.1,2.4-1.4s1.9-0.5,2.9-0.5c0.2,0,0.5,0,0.7,0c0.2,0,0.5,0.1,0.7,0.1v0
			c-0.9,0.2-1.7,0.4-2.3,0.8c-0.7,0.4-1.2,0.8-1.7,1.4c-0.5,0.6-0.8,1.2-1.1,2s-0.5,1.6-0.6,2.4c-0.1,0.9-0.2,1.8-0.2,2.8
			c0,1.4,0.2,2.4,0.6,3c0.4,0.6,1,0.9,1.8,0.9c0.7,0,1.3-0.2,1.8-0.6c0.5-0.4,1-1,1.5-1.7c0.4-0.7,0.8-1.5,1.1-2.3
			c0.3-0.8,0.5-1.6,0.7-2.5c0.2-0.8,0.2-1.5,0.2-2.2c0-0.6-0.1-1.2-0.3-1.5s-0.4-0.6-0.8-0.6c-0.4,0-0.6,0.1-0.9,0.4
			c-0.2,0.3-0.4,0.7-0.5,1.1c-0.1,0.4-0.2,0.9-0.2,1.4c0,0.5,0.1,1,0.3,1.4c0.2,0.4,0.4,0.6,0.7,0.8c-0.2,0.3-0.5,0.5-0.9,0.7
			c-0.4,0.2-0.7,0.2-1.1,0.2c-0.6,0-1.2-0.2-1.6-0.5s-0.7-0.9-0.7-1.7c0-0.6,0.1-1.1,0.3-1.7s0.5-1.1,1-1.6c0.4-0.5,1-0.9,1.6-1.2
			c0.7-0.3,1.4-0.5,2.3-0.5c1,0,1.8,0.2,2.5,0.6c0.7,0.4,1.1,0.9,1.5,1.6c0.3,0.7,0.5,1.5,0.5,2.4c0,0.8-0.1,1.7-0.4,2.6
			c-0.3,0.9-0.6,1.7-1.2,2.6c-0.5,0.8-1.2,1.6-2,2.2c-0.8,0.7-1.7,1.2-2.8,1.6S41.9,44.6,40.6,44.6z"/>
		<path class="st0" d="M59.8,44.6c-0.8,0-1.6,0-2.2-0.1c-0.7-0.1-1.3-0.2-1.7-0.3s-0.7-0.3-0.8-0.6c0.2-0.1,0.4-0.3,0.6-0.5
			c0.1-0.2,0.2-0.4,0.3-0.7c0.1-0.3,0.2-0.7,0.3-1.1l1.5-6.8c0.2-0.7,0.4-1.3,0.8-1.8s0.9-0.9,1.6-1.3l0-0.1c-0.1,0-0.3,0-0.4,0
			c-0.1,0-0.2,0-0.4,0c-0.8,0-1.5,0.2-2.1,0.5c-0.6,0.3-1.1,0.8-1.4,1.4c-0.3,0.6-0.5,1.2-0.5,2c0,0.4,0,0.8,0.1,1.1
			c0.1,0.4,0.3,0.8,0.5,1.2c-0.2,0.2-0.5,0.3-0.8,0.4c-0.3,0.1-0.6,0.1-0.9,0.1c-0.7,0-1.2-0.1-1.7-0.4s-0.8-0.6-1-1
			c-0.2-0.4-0.3-0.9-0.3-1.4c0-0.8,0.2-1.5,0.6-2.1c0.4-0.6,1-1.2,1.8-1.7c0.8-0.5,1.9-0.8,3.1-1.1c1.3-0.3,2.8-0.4,4.5-0.4
			c2,0,3.7,0.2,5.1,0.6c1.4,0.4,2.5,1,3.2,1.8s1.1,2,1.1,3.4c0,1.2-0.3,2.4-0.8,3.4c-0.5,1.1-1.3,2-2.3,2.8c-1,0.8-2.2,1.4-3.5,1.8
			C62.9,44.4,61.4,44.6,59.8,44.6z M60.2,43.2c1.1,0,2-0.2,2.8-0.7s1.4-1.1,2-1.9s0.9-1.7,1.1-2.7s0.4-2,0.4-3
			c0-0.8-0.1-1.4-0.4-1.9s-0.6-0.8-1.1-1.1c-0.5-0.2-1-0.3-1.7-0.3c-0.2,0.1-0.4,0.3-0.5,0.5s-0.2,0.5-0.3,0.7l-1.9,8.4
			c-0.1,0.6-0.3,1.1-0.5,1.4s-0.4,0.5-0.6,0.6c0.1,0,0.2,0,0.4,0S60.1,43.2,60.2,43.2z"/>
	</g>
	<g>
		<g>
			<g>
				<path class="st0" d="M90.3,26.4c4.5,0,8.1,3.9,8.1,8.6s-3.6,8.6-8.1,8.6c-4.5,0-8.1-3.9-8.1-8.6S85.8,26.4,90.3,26.4z
					 M90.3,41.6c3.4,0,6.2-2.9,6.2-6.6c0-3.6-2.8-6.6-6.2-6.6s-6.2,2.9-6.2,6.6C84.1,38.6,86.9,41.6,90.3,41.6z"/>
			</g>
		</g>
		<g>
			<g>
				<path class="st0" d="M90.3,30.2c2.5,0,4.5,2.2,4.5,4.8s-2,4.8-4.5,4.8s-4.5-2.2-4.5-4.8C85.8,32.4,87.8,30.2,90.3,30.2z"/>
			</g>
		</g>
		<g>
			<g>
				<path class="st0" d="M78.9,35.7V25.2c0-0.1,0.1-0.2,0.2-0.2c0.1,0,0.2,0,0.2,0.1c1.2,1.7,1.9,3.8,1.9,6v3.8
					c0,0.4-0.3,0.8-0.8,0.8h-0.3c0.3,3.4,0.5,8.1,0.5,8.7c0,0.9-0.5,1.6-1.1,1.6s-1.1-0.7-1.1-1.6C78.4,43.9,78.6,39.1,78.9,35.7z"
					/>
			</g>
		</g>
		<g>
			<g>
				<path class="st0" d="M99.7,33.7c-0.6-0.4-1-1.1-1-2l0.3-5.4c0-0.2,0.2-0.4,0.4-0.4c0.2,0,0.4,0.2,0.4,0.4l-0.2,4.3
					c0,0.2,0.2,0.4,0.4,0.4c0.2,0,0.4-0.2,0.4-0.4l0.1-4.3c0-0.2,0.2-0.4,0.4-0.4s0.4,0.2,0.4,0.4l0.1,4.3c0,0.2,0.2,0.4,0.4,0.4
					c0.2,0,0.4-0.2,0.4-0.4l-0.2-4.3c0-0.2,0.2-0.4,0.4-0.4c0.2,0,0.4,0.2,0.4,0.4l0.3,5.4c0,0.8-0.4,1.6-1,2
					c-0.4,0.3-0.6,0.8-0.6,1.3c0.4,3.4,0.6,8.9,0.6,9.5c0,0.9-0.5,1.6-1.1,1.6s-1.1-0.7-1.1-1.6c0-0.6,0.2-6.1,0.6-9.5
					C100.4,34.4,100.1,33.9,99.7,33.7z"/>
			</g>
		</g>
	</g>
</g>
</svg>
