<?xml version="1.0" encoding="utf-8"?>
<!-- Generator: Adobe Illustrator 23.0.1, SVG Export Plug-In . SVG Version: 6.00 Build 0)  -->
<svg version="1.1" id="Layer_1" xmlns="http://www.w3.org/2000/svg" xmlns:xlink="http://www.w3.org/1999/xlink" x="0px" y="0px"
	 viewBox="0 0 50 50" style="enable-background:new 0 0 50 50;" xml:space="preserve">
<style type="text/css">
	.st0{fill:#16B770;}
	.st1{fill:#009C56;}
	.st2{fill:#FFF4F1;}
	.st3{fill:#ECEDEF;}
	.st4{fill:#D47A3D;}
	.st5{fill:#9F5C2E;}
	.st6{fill:#F9E075;}
	.st7{fill:#F9CD45;}
	.st8{fill:#F195D6;}
	.st9{fill:#E480BE;}
	.st10{fill:#65CEE3;}
	.st11{fill:#1BACD6;}
	.st12{fill:#F85E49;}
	.st13{fill:#BA4737;}
	.st14{fill:#FF9F4D;}
	.st15{fill:#FB900D;}
	.st16{fill:#9B43A9;}
	.st17{fill:#893AA8;}
	.st18{fill:#F8B53C;}
	.st19{fill:#18191B;}
</style>
<g>
	<path class="st0" d="M44.2,6.2c-1.5-1.3-8.2,3.8-15,11.4S18,32.5,19.4,33.8c1.5,1.3,8.2-3.8,15-11.4C41.3,14.7,45.7,7.5,44.2,6.2z"
		/>
	<path class="st1" d="M44.2,6.2c-0.4-0.3-1.1-0.2-2.1,0.2c0.9,1.7-3.4,8.7-9.9,16c-5.1,5.7-10.1,9.9-12.9,11.2
		c0,0.1,0.1,0.1,0.2,0.2c1.5,1.3,8.2-3.8,15-11.4S45.7,7.5,44.2,6.2z"/>
	<path class="st2" d="M40.1,15.5c3.4-4.7,5.1-8.4,4.1-9.3s-4.5,1.2-8.8,5.1L40.1,15.5z"/>
	<path class="st3" d="M44.5,6.8C44.5,6.8,44.5,6.8,44.5,6.8c0-0.1,0-0.1,0-0.1c0,0,0,0,0,0c0,0,0-0.1,0-0.1c0,0,0,0,0,0
		c0,0,0-0.1,0-0.1c0,0,0,0,0,0c0,0,0-0.1,0-0.1c0,0,0,0,0,0c0,0,0-0.1-0.1-0.1c0,0,0,0,0,0c0,0,0,0,0,0c0,0-0.1,0-0.1-0.1
		c0,0,0,0,0,0c0,0,0,0-0.1,0c0,0,0,0,0,0c0,0-0.1,0-0.1,0c0,0,0,0,0,0c0,0-0.1,0-0.1,0c0,0,0,0,0,0c0,0-0.1,0-0.1,0c0,0,0,0-0.1,0
		c0,0-0.1,0-0.1,0c0,0,0,0-0.1,0c0,0-0.1,0-0.1,0c0,0-0.1,0-0.1,0c0,0-0.1,0-0.1,0c0,0-0.1,0-0.1,0c0,0-0.1,0-0.1,0
		c-0.1,0-0.1,0-0.2,0.1c0,0-0.1,0-0.1,0c0,0-0.1,0-0.1,0c0,0-0.1,0-0.1,0c0,0-0.1,0-0.1,0c0,0-0.1,0-0.1,0c0,0-0.1,0-0.1,0.1
		c0.6,1.1-0.8,4-3.4,7.8l1.4,1.2c0.1-0.1,0.2-0.3,0.3-0.4c0,0,0-0.1,0.1-0.1c0.1-0.1,0.2-0.2,0.3-0.4c0,0,0,0,0,0
		c0.1-0.1,0.2-0.3,0.3-0.4c0,0,0,0,0,0c0.1-0.1,0.2-0.2,0.2-0.3c0,0,0,0,0-0.1c0.2-0.3,0.3-0.5,0.5-0.8c0,0,0,0,0-0.1
		c0.1-0.1,0.1-0.2,0.2-0.3c0,0,0,0,0-0.1c0.2-0.2,0.3-0.5,0.4-0.7c0,0,0,0,0-0.1c0.1-0.1,0.1-0.2,0.2-0.3c0,0,0,0,0,0
		c0.1-0.1,0.1-0.2,0.2-0.3c0,0,0,0,0,0c0.1-0.1,0.1-0.2,0.2-0.3c0,0,0,0,0-0.1c0.1-0.1,0.1-0.2,0.2-0.3c0,0,0,0,0,0
		c0.1-0.1,0.1-0.2,0.2-0.3c0,0,0,0,0-0.1c0-0.1,0.1-0.2,0.1-0.2c0,0,0,0,0-0.1c0-0.1,0.1-0.2,0.1-0.3c0,0,0,0,0,0
		c0-0.1,0.1-0.2,0.1-0.3c0,0,0,0,0-0.1C44,9,44,8.9,44.1,8.9c0,0,0,0,0,0c0-0.1,0.1-0.2,0.1-0.3c0,0,0,0,0,0c0-0.1,0-0.1,0.1-0.2
		c0,0,0,0,0-0.1c0-0.1,0-0.1,0.1-0.2c0,0,0,0,0,0c0-0.1,0-0.1,0.1-0.2c0,0,0,0,0-0.1c0-0.1,0-0.1,0-0.2c0,0,0,0,0-0.1
		c0-0.1,0-0.1,0-0.2c0,0,0,0,0,0c0-0.1,0-0.1,0-0.2c0,0,0,0,0,0c0,0,0-0.1,0-0.1c0,0,0,0,0,0C44.5,6.9,44.5,6.9,44.5,6.8z"/>
	<path class="st4" d="M47.5,8.9c-1.6,1.8-4.3,1.9-6.1,0.3c-1.8-1.6-1.9-4.3-0.3-6.1c1.6-1.8,8.2-2.7,8.2-2.7S49.1,7.2,47.5,8.9z"/>
	<path class="st5" d="M47,0.9c-0.1,1.5-0.4,6.5-1.8,8c-0.6,0.6-1.3,1.1-2.1,1.3c1.5,0.4,3.2,0,4.3-1.3c1.6-1.8,1.8-8.4,1.8-8.4
		S48.3,0.7,47,0.9z"/>
	<path class="st6" d="M40.9,23.1c-4,0-7.8-1-10.6-4c-2.2-2.3-3.5-5.5-3.4-8.7c0-1,0.2-2.1,0.1-3.1c-0.2-2.9-2.4-3.9-5.1-3.6
		C8.7,5.2-1.4,17.6,0.9,30.9c0.4,2.3,1.1,4.5,2.2,6.5c6.2,11.8,22,15.8,33.1,8.5c1.1-0.7,2.2-1.6,3.2-2.5c4.5-4.3,7.2-10.4,7.2-16.7
		c0,0,0,0,0,0c0-2.3-1.9-3.5-4-3.5C42,23.1,41.4,23.1,40.9,23.1z"/>
	<path class="st7" d="M46.7,26.5c0-2.3-1.9-3.5-4-3.5c-0.5,0-1.1,0-1.6,0c-4,0-7.8-1-10.6-4c-2.2-2.3-3.5-5.5-3.4-8.7
		c0-1,0.2-2.1,0.1-3.1c-0.2-2.9-2.4-3.9-5.1-3.6c-0.1,0-0.2,0-0.3,0c1.7,0.3,2.9,1.4,3.1,3.6c0.1,1-0.1,2.1-0.1,3.1
		c0,3.2,1.2,6.4,3.4,8.7c2.8,3,6.6,3.9,10.6,4c0.5,0,1.1,0,1.6,0c2.1,0,4,1.2,4,3.5v0c0,6.3-2.6,12.4-7.2,16.7c-1,0.9-2,1.8-3.2,2.5
		c-3.5,2.3-7.4,3.5-11.4,3.6c4.7,0.2,9.5-0.9,13.6-3.6c1.1-0.7,2.2-1.6,3.2-2.5C44.1,38.9,46.7,32.8,46.7,26.5
		C46.7,26.5,46.7,26.5,46.7,26.5z"/>
	<path class="st8" d="M19.1,14c0,1.7-1.4,3.2-3.2,3.2c-1.7,0-3.2-1.4-3.2-3.2c0-1.7,1.4-3.2,3.2-3.2C17.7,10.8,19.1,12.2,19.1,14z"
		/>
	<path class="st9" d="M16,10.8c-0.4,0-0.8,0.1-1.1,0.2c1.2,0.5,2,1.6,2,2.9s-0.8,2.5-2,2.9c0.4,0.1,0.7,0.2,1.1,0.2
		c1.7,0,3.2-1.4,3.2-3.2S17.7,10.8,16,10.8z"/>
	<path class="st10" d="M13.4,21.4c0,1.7-1.3,3-3,3s-3-1.3-3-3c0-1.7,1.3-3,3-3S13.4,19.7,13.4,21.4z"/>
	<path class="st11" d="M10.4,18.4c-0.4,0-0.8,0.1-1.1,0.2c1.1,0.4,1.9,1.5,1.9,2.8c0,1.3-0.8,2.3-1.9,2.8c0.3,0.1,0.7,0.2,1.1,0.2
		c1.7,0,3-1.3,3-3C13.4,19.7,12.1,18.4,10.4,18.4z"/>
	<path class="st0" d="M12.9,32c0,1.7-1.3,3-3,3c-1.7,0-3-1.3-3-3s1.3-3,3-3C11.6,29,12.9,30.3,12.9,32z"/>
	<path class="st1" d="M9.9,29c-0.4,0-0.8,0.1-1.1,0.2c1.1,0.4,1.8,1.5,1.8,2.8c0,1.2-0.8,2.3-1.8,2.8C9.1,34.9,9.5,35,9.9,35
		c1.7,0,3-1.3,3-3S11.6,29,9.9,29z"/>
	<path class="st12" d="M19.7,40c0,1.7-1.3,3-3,3s-3-1.3-3-3c0-1.7,1.3-3,3-3S19.7,38.4,19.7,40z"/>
	<path class="st13" d="M16.7,37.1c-0.4,0-0.8,0.1-1.1,0.2c1.1,0.4,1.9,1.5,1.9,2.8c0,1.3-0.8,2.3-1.9,2.8C16,43,16.3,43,16.7,43
		c1.7,0,3-1.3,3-3C19.7,38.4,18.4,37.1,16.7,37.1z"/>
	<path class="st14" d="M31.4,40.6c0,1.7-1.3,3-3,3c-1.7,0-3-1.3-3-3s1.3-3,3-3C30,37.6,31.4,39,31.4,40.6z"/>
	<path class="st15" d="M28.4,37.6c-0.4,0-0.8,0.1-1.1,0.2c1.1,0.4,1.9,1.5,1.9,2.8s-0.8,2.3-1.9,2.8c0.3,0.1,0.7,0.2,1.1,0.2
		c1.7,0,3-1.3,3-3C31.4,39,30,37.6,28.4,37.6z"/>
	<path class="st16" d="M40.3,33.6c0,1.7-1.4,3.2-3.2,3.2c-1.7,0-3.2-1.4-3.2-3.2c0-1.7,1.4-3.2,3.2-3.2
		C38.9,30.4,40.3,31.8,40.3,33.6z"/>
	<path class="st17" d="M37.1,30.4c-0.4,0-0.8,0.1-1.1,0.2c1.2,0.5,2,1.6,2,2.9c0,1.3-0.8,2.5-2,2.9c0.4,0.1,0.7,0.2,1.1,0.2
		c1.7,0,3.2-1.4,3.2-3.2C40.3,31.8,38.9,30.4,37.1,30.4z"/>
	<path class="st18" d="M31,26.1c-0.7,2.2-2.5,4.1-4.9,5c-3.4,1.3-7.1,0.2-9.1-2.4l-0.5,0.1c1.4,3.8,5.9,5.6,10,4.1
		c3.1-1.2,5.1-4,5.2-7L31,26.1z"/>
	<g>
		<path class="st19" d="M43.8,11c0.2,0,0.4,0,0.6,0c0.1,0,0.2,0,0.3,0c1.3-0.1,2.6-0.7,3.4-1.7C49.8,7.5,50,1.2,50,0.5
			c0-0.2-0.1-0.4-0.2-0.5c-0.2-0.1-0.4-0.2-0.6-0.2c-0.7,0.1-6.9,1-8.6,2.9c-1.1,1.2-1.5,2.9-1.2,4.4c-0.7,0.5-1.4,1-2.1,1.6v0
			c-0.2,0.2-0.5,0.4-0.7,0.6c0,0,0,0-0.1,0.1c-0.2,0.2-0.4,0.3-0.6,0.5c0,0,0,0,0,0c-0.1,0.1-0.2,0.2-0.3,0.3c0,0,0,0,0,0
			c-0.2,0.2-0.4,0.4-0.6,0.5c0,0,0,0,0,0c0,0,0,0,0,0c-1.8,1.6-3.7,3.5-5.6,5.6c-1.1-1.8-1.6-3.9-1.6-6c0-0.4,0-0.7,0-1.1
			c0-0.7,0.1-1.4,0-2.1c-0.1-1.4-0.6-2.5-1.5-3.3c-1-0.9-2.5-1.2-4.3-1C16.8,3.4,12,5.6,8.1,9.2c-0.3,0.3-0.3,0.7-0.1,1
			c0.3,0.3,0.8,0.3,1.1,0.1c3.7-3.4,8.2-5.4,13.1-6c1-0.1,2.3-0.1,3.2,0.7c0.6,0.5,0.9,1.2,1,2.3c0,0.6,0,1.2,0,1.9
			c0,0.4,0,0.8,0,1.2c0,2.6,0.7,5.2,2.2,7.4c0,0.2,0.3,0.5,0.4,0.6c0.3,0.5,0.7,0.9,1.1,1.3c1.1,1.2,2.4,2.1,3.8,2.8
			c0.6,0.3,1.2,0.5,1.2,0.5c1.8,0.6,3.8,0.9,6,0.9c0.2,0,0.4,0,0.6,0c0.3,0,0.6,0,1,0c2.3,0,3.3,1.4,3.3,2.8v0
			c0,6.1-2.5,12-6.9,16.2c-0.9,0.9-2,1.7-3.1,2.4c-5.2,3.4-11.7,4.4-17.9,2.8c-6.1-1.6-11.3-5.6-14.1-11c-1-2-1.7-4.1-2.1-6.3
			c-0.6-3.2-0.4-6.4,0.5-9.6c0.9-3,2.3-5.8,4.4-8.3C7,12.5,6.9,12,6.6,11.7c-0.3-0.3-0.8-0.2-1.1,0.1c-2.2,2.6-3.8,5.6-4.7,8.8
			c-1,3.4-1.1,6.8-0.5,10.3c0.4,2.4,1.2,4.7,2.3,6.7c3,5.8,8.5,10.1,15,11.8c2.1,0.5,4.1,0.8,6.2,0.8c4.6,0,9.1-1.3,12.9-3.8
			c1.2-0.8,2.3-1.6,3.3-2.6c4.7-4.5,7.4-10.7,7.4-17.2v-0.1c0-2.5-2-4.2-4.8-4.3c-0.3,0-0.7,0-1,0c-0.2,0-0.4,0-0.6,0
			c-1.9,0-3.5-0.2-5-0.7c2.9-3.3,5.3-6.6,7-9.3C43.3,11.8,43.6,11.4,43.8,11z M41.6,3.7c0.9-1,4.5-1.9,6.9-2.3
			c-0.1,2.5-0.6,6.1-1.6,7.1c-0.6,0.7-1.5,1.1-2.5,1.2c-1,0.1-1.9-0.3-2.6-0.9C40.4,7.4,40.3,5.1,41.6,3.7z M34.7,21.1
			c-1.4-0.6-2.6-1.5-3.7-2.6c-0.3-0.3-0.6-0.6-0.8-1c1.8-1.9,3.5-3.7,5.2-5.3l3.7,3.3C37.9,17.3,36.4,19.2,34.7,21.1z M42.4,10.7
			C42.4,10.7,42.4,10.7,42.4,10.7c-0.1,0.1-0.1,0.2-0.2,0.3c0,0,0,0,0,0c-0.6,1-1.4,2.2-2.2,3.4l-3.5-3.1c1.3-1.1,2.4-2.1,3.5-2.8
			c0.3,0.5,0.6,0.9,1,1.3C41.4,10.2,41.9,10.5,42.4,10.7C42.4,10.7,42.4,10.7,42.4,10.7z"/>
		<path class="st19" d="M16,10.1c-2.1,0-3.9,1.7-3.9,3.9c0,2.1,1.7,3.9,3.9,3.9s3.9-1.7,3.9-3.9C19.9,11.8,18.1,10.1,16,10.1z
			 M16,16.4c-1.3,0-2.4-1.1-2.4-2.4s1.1-2.4,2.4-2.4c1.3,0,2.4,1.1,2.4,2.4S17.3,16.4,16,16.4z"/>
		<path class="st19" d="M6.7,21.4c0,2.1,1.7,3.7,3.7,3.7s3.7-1.7,3.7-3.7s-1.7-3.7-3.7-3.7S6.7,19.3,6.7,21.4z M12.7,21.4
			c0,1.2-1,2.3-2.3,2.3c-1.2,0-2.3-1-2.3-2.3s1-2.3,2.3-2.3C11.7,19.1,12.7,20.1,12.7,21.4z"/>
		<path class="st19" d="M9.9,28.3c-2.1,0-3.7,1.7-3.7,3.7s1.7,3.7,3.7,3.7c2.1,0,3.7-1.7,3.7-3.7S12,28.3,9.9,28.3z M9.9,34.3
			c-1.2,0-2.3-1-2.3-2.3c0-1.2,1-2.3,2.3-2.3c1.2,0,2.3,1,2.3,2.3C12.2,33.2,11.1,34.3,9.9,34.3z"/>
		<path class="st19" d="M16.7,43.8c2.1,0,3.7-1.7,3.7-3.7c0-2.1-1.7-3.7-3.7-3.7S13,38,13,40C13,42.1,14.7,43.8,16.7,43.8z
			 M16.7,37.8c1.2,0,2.3,1,2.3,2.3c0,1.2-1,2.3-2.3,2.3s-2.3-1-2.3-2.3C14.5,38.8,15.5,37.8,16.7,37.8z"/>
		<path class="st19" d="M24.7,40.6c0,2.1,1.7,3.7,3.7,3.7s3.7-1.7,3.7-3.7c0-2.1-1.7-3.7-3.7-3.7S24.7,38.6,24.7,40.6z M30.6,40.6
			c0,1.2-1,2.3-2.3,2.3c-1.2,0-2.3-1-2.3-2.3c0-1.2,1-2.3,2.3-2.3C29.6,38.4,30.6,39.4,30.6,40.6z"/>
		<path class="st19" d="M41,33.6c0-2.1-1.7-3.9-3.9-3.9c-2.1,0-3.9,1.7-3.9,3.9c0,2.1,1.7,3.9,3.9,3.9C39.3,37.5,41,35.7,41,33.6z
			 M34.7,33.6c0-1.3,1.1-2.4,2.4-2.4c1.3,0,2.4,1.1,2.4,2.4c0,1.3-1.1,2.4-2.4,2.4C35.8,36,34.7,34.9,34.7,33.6z"/>
		<path class="st19" d="M31.7,25.2c-0.4,0-0.8,0.3-0.8,0.7c-0.1,2.8-2,5.2-4.8,6.3c-1.8,0.7-3.7,0.7-5.5,0c-1.7-0.7-3-2-3.6-3.6
			c-0.1-0.4-0.6-0.6-1-0.4c-0.4,0.1-0.6,0.6-0.4,1c0.8,2,2.3,3.6,4.4,4.5c1.1,0.4,2.2,0.6,3.3,0.6c1.1,0,2.2-0.2,3.2-0.6
			c3.3-1.3,5.6-4.3,5.7-7.6C32.5,25.6,32.2,25.2,31.7,25.2z"/>
	</g>
</g>
</svg>
