<?xml version="1.0" encoding="utf-8"?>
<!-- Generator: Adobe Illustrator 23.0.1, SVG Export Plug-In . SVG Version: 6.00 Build 0)  -->
<svg version="1.1" id="Layer_1" xmlns="http://www.w3.org/2000/svg" xmlns:xlink="http://www.w3.org/1999/xlink" x="0px" y="0px"
	 viewBox="0 0 50 50" style="enable-background:new 0 0 50 50;" xml:space="preserve">
<style type="text/css">
	.st0{fill:#FFFFFF;}
</style>
<g>
	<g>
		<path class="st0" d="M39,23L16.7,0.8C16.2,0.3,15.5,0,14.8,0s-1.4,0.3-1.9,0.8l-1.6,1.6c-1.1,1.1-1.1,2.8,0,3.9L29.9,25L11.2,43.7
			c-0.5,0.5-0.8,1.2-0.8,1.9s0.3,1.4,0.8,1.9l1.6,1.6c0.5,0.5,1.2,0.8,1.9,0.8s1.4-0.3,1.9-0.8L39,26.9c0.5-0.5,0.8-1.2,0.8-1.9
			C39.8,24.3,39.5,23.6,39,23z"/>
	</g>
</g>
</svg>
