<?xml version="1.0" encoding="utf-8"?>
<!-- Generator: Adobe Illustrator 23.0.1, SVG Export Plug-In . SVG Version: 6.00 Build 0)  -->
<svg version="1.1" id="Layer_1" xmlns="http://www.w3.org/2000/svg" xmlns:xlink="http://www.w3.org/1999/xlink" x="0px" y="0px"
	 viewBox="0 0 56 56" style="enable-background:new 0 0 56 56;" xml:space="preserve">
<style type="text/css">
	.st0{fill:#FFFFFF;}
</style>
<g>
	<g>
		<path class="st0" d="M54.9,48.8l-8.1-8.1C46.1,40,45,39.6,44,39.6l-3.9-3.9c6.6-8.7,5.9-21.3-2-29.2c-8.7-8.7-22.8-8.7-31.5,0
			c-8.7,8.7-8.7,22.9,0,31.6c8,8,20.5,8.6,29.2,2l3.9,3.9c0,1,0.3,2.1,1.1,2.8l8,8.1c1.4,1.4,3.8,1.4,5.2,0l0.9-0.9
			C56.4,52.6,56.4,50.2,54.9,48.8z M33.3,33.3c-6,6-15.9,6.1-21.9,0s-6-15.9,0-21.9c6-6,15.9-6.1,21.9,0S39.3,27.2,33.3,33.3z"/>
		<path class="st0" d="M28.4,20h-3.7v-3.7c0-1.3-1.1-2.4-2.4-2.4h0C21.1,14,20,15,20,16.3V20h-3.7C15,20,14,21.1,14,22.4v0
			c0,1.3,1.1,2.4,2.4,2.4H20v3.7c0,1.3,1.1,2.4,2.4,2.4h0c1.3,0,2.4-1.1,2.4-2.4v-3.7h3.7c1.3,0,2.4-1.1,2.4-2.4v0
			C30.8,21.1,29.7,20,28.4,20z"/>
	</g>
</g>
</svg>
